<mxfile host="Electron" agent="Mozilla/5.0 (Windows NT 10.0; Win64; x64) AppleWebKit/537.36 (KHTML, like Gecko) draw.io/28.1.2 Chrome/138.0.7204.243 Electron/37.4.0 Safari/537.36" version="28.1.2">
  <diagram name="Page-1" id="bfISRJ7RHCTsXQSGrLM2">
    <mxGraphModel dx="1066" dy="802" grid="1" gridSize="10" guides="1" tooltips="1" connect="1" arrows="1" fold="1" page="1" pageScale="1" pageWidth="1100" pageHeight="850" math="0" shadow="0">
      <root>
        <mxCell id="0" />
        <mxCell id="1" parent="0" />
        <mxCell id="lZYvfVT1V63JjuYHoyjp-1" value="" style="rounded=0;whiteSpace=wrap;html=1;dashed=1;strokeColor=#CCCCCC;fillColor=none;" parent="1" vertex="1">
          <mxGeometry x="50" y="120" width="140" height="520" as="geometry" />
        </mxCell>
        <mxCell id="lZYvfVT1V63JjuYHoyjp-2" value="&lt;font style=&quot;font-size: 18px;&quot;&gt;Sources&lt;/font&gt;" style="rounded=0;whiteSpace=wrap;html=1;fillColor=default;strokeColor=none;fontStyle=1" parent="1" vertex="1">
          <mxGeometry x="80" y="100" width="80" height="30" as="geometry" />
        </mxCell>
        <mxCell id="lZYvfVT1V63JjuYHoyjp-3" value="&lt;font style=&quot;font-size: 24px;&quot;&gt;&lt;b&gt;High Level Archeticture&lt;/b&gt;&lt;/font&gt;" style="text;html=1;align=center;verticalAlign=middle;whiteSpace=wrap;rounded=0;" parent="1" vertex="1">
          <mxGeometry x="30" y="20" width="300" height="30" as="geometry" />
        </mxCell>
        <mxCell id="lZYvfVT1V63JjuYHoyjp-4" value="" style="rounded=0;whiteSpace=wrap;html=1;dashed=1;strokeColor=#CCCCCC;fillColor=none;" parent="1" vertex="1">
          <mxGeometry x="240" y="120" width="480" height="520" as="geometry" />
        </mxCell>
        <mxCell id="lZYvfVT1V63JjuYHoyjp-5" value="&lt;font style=&quot;font-size: 18px;&quot;&gt;Data Warehouse&lt;/font&gt;" style="rounded=0;whiteSpace=wrap;html=1;fillColor=default;strokeColor=none;fontStyle=1" parent="1" vertex="1">
          <mxGeometry x="420" y="104" width="140" height="30" as="geometry" />
        </mxCell>
        <mxCell id="lZYvfVT1V63JjuYHoyjp-6" value="" style="rounded=0;whiteSpace=wrap;html=1;dashed=1;strokeColor=#CCCCCC;fillColor=none;" parent="1" vertex="1">
          <mxGeometry x="761" y="120" width="120" height="520" as="geometry" />
        </mxCell>
        <mxCell id="lZYvfVT1V63JjuYHoyjp-7" value="&lt;font style=&quot;font-size: 18px;&quot;&gt;Consume&lt;/font&gt;" style="rounded=0;whiteSpace=wrap;html=1;fillColor=default;strokeColor=none;fontStyle=1" parent="1" vertex="1">
          <mxGeometry x="781" y="104" width="80" height="30" as="geometry" />
        </mxCell>
        <mxCell id="lZYvfVT1V63JjuYHoyjp-8" value="&lt;font style=&quot;font-size: 14px;&quot;&gt;Bronze&lt;/font&gt;" style="rounded=0;whiteSpace=wrap;html=1;fillColor=#ffcd28;strokeColor=#d79b00;gradientColor=#ffa500;fontStyle=1" parent="1" vertex="1">
          <mxGeometry x="280" y="160" width="120" height="20" as="geometry" />
        </mxCell>
        <mxCell id="lZYvfVT1V63JjuYHoyjp-9" value="" style="rounded=0;whiteSpace=wrap;html=1;fillColor=none;strokeColor=#d79b00;gradientColor=#ffa500;" parent="1" vertex="1">
          <mxGeometry x="280" y="190" width="120" height="440" as="geometry" />
        </mxCell>
        <mxCell id="lZYvfVT1V63JjuYHoyjp-10" value="&lt;font style=&quot;font-size: 14px;&quot;&gt;Silver&lt;/font&gt;" style="rounded=0;whiteSpace=wrap;html=1;fillColor=#f5f5f5;strokeColor=#666666;gradientColor=#b3b3b3;fontStyle=1" parent="1" vertex="1">
          <mxGeometry x="430" y="160" width="120" height="20" as="geometry" />
        </mxCell>
        <mxCell id="lZYvfVT1V63JjuYHoyjp-11" value="" style="rounded=0;whiteSpace=wrap;html=1;fillColor=none;strokeColor=#666666;gradientColor=#b3b3b3;" parent="1" vertex="1">
          <mxGeometry x="430" y="190" width="120" height="440" as="geometry" />
        </mxCell>
        <mxCell id="lZYvfVT1V63JjuYHoyjp-12" value="&lt;font style=&quot;font-size: 14px;&quot;&gt;Gold&lt;/font&gt;" style="rounded=0;whiteSpace=wrap;html=1;fillColor=#fff2cc;strokeColor=#d6b656;gradientColor=#ffd966;fontStyle=1" parent="1" vertex="1">
          <mxGeometry x="580" y="160" width="120" height="20" as="geometry" />
        </mxCell>
        <mxCell id="lZYvfVT1V63JjuYHoyjp-13" value="" style="rounded=0;whiteSpace=wrap;html=1;fillColor=none;strokeColor=#d6b656;gradientColor=#ffd966;" parent="1" vertex="1">
          <mxGeometry x="580" y="190" width="120" height="440" as="geometry" />
        </mxCell>
        <mxCell id="lZYvfVT1V63JjuYHoyjp-14" value="" style="image;aspect=fixed;html=1;points=[];align=center;fontSize=12;image=img/lib/azure2/general/Folder_Blank.svg;" parent="1" vertex="1">
          <mxGeometry x="90" y="234" width="61.61" height="50" as="geometry" />
        </mxCell>
        <mxCell id="lZYvfVT1V63JjuYHoyjp-15" value="" style="image;aspect=fixed;html=1;points=[];align=center;fontSize=12;image=img/lib/azure2/general/File.svg;" parent="1" vertex="1">
          <mxGeometry x="130" y="258" width="27.59" height="34" as="geometry" />
        </mxCell>
        <mxCell id="lZYvfVT1V63JjuYHoyjp-16" value="&lt;font style=&quot;font-size: 10px;&quot;&gt;CRM&lt;/font&gt;" style="text;html=1;align=center;verticalAlign=middle;whiteSpace=wrap;rounded=0;fontStyle=1" parent="1" vertex="1">
          <mxGeometry x="88" y="283" width="60" height="20" as="geometry" />
        </mxCell>
        <mxCell id="lZYvfVT1V63JjuYHoyjp-22" value="" style="verticalLabelPosition=bottom;shadow=0;dashed=0;align=center;html=1;verticalAlign=top;strokeWidth=1;shape=mxgraph.mockup.markup.line;strokeColor=#999999;" parent="1" vertex="1">
          <mxGeometry x="50" y="350" width="140" height="20" as="geometry" />
        </mxCell>
        <mxCell id="lZYvfVT1V63JjuYHoyjp-23" value="&lt;font style=&quot;font-size: 11px;&quot;&gt;&lt;b&gt;Object Type:&lt;/b&gt; CSV Files&lt;/font&gt;&lt;div&gt;&lt;font style=&quot;font-size: 11px;&quot;&gt;&lt;b&gt;Interface:&lt;/b&gt; Files in Folder&lt;/font&gt;&lt;/div&gt;" style="text;html=1;align=left;verticalAlign=middle;whiteSpace=wrap;rounded=0;" parent="1" vertex="1">
          <mxGeometry x="50" y="380" width="140" height="30" as="geometry" />
        </mxCell>
        <mxCell id="lZYvfVT1V63JjuYHoyjp-24" value="" style="html=1;verticalLabelPosition=bottom;align=center;labelBackgroundColor=#ffffff;verticalAlign=top;strokeWidth=2;strokeColor=#d79b00;shadow=0;dashed=0;shape=mxgraph.ios7.icons.data;fillColor=#ffcd28;gradientColor=#ffa500;" parent="1" vertex="1">
          <mxGeometry x="313.5" y="243.45" width="54" height="62.55" as="geometry" />
        </mxCell>
        <mxCell id="lZYvfVT1V63JjuYHoyjp-25" value="" style="html=1;verticalLabelPosition=bottom;align=center;labelBackgroundColor=#ffffff;verticalAlign=top;strokeWidth=2;strokeColor=#666666;shadow=0;dashed=0;shape=mxgraph.ios7.icons.data;fillColor=#f5f5f5;gradientColor=#b3b3b3;" parent="1" vertex="1">
          <mxGeometry x="462" y="243.45" width="54" height="62.55" as="geometry" />
        </mxCell>
        <mxCell id="lZYvfVT1V63JjuYHoyjp-26" value="" style="html=1;verticalLabelPosition=bottom;align=center;labelBackgroundColor=#ffffff;verticalAlign=top;strokeWidth=2;strokeColor=#d6b656;shadow=0;dashed=0;shape=mxgraph.ios7.icons.data;fillColor=#fff2cc;gradientColor=#ffd966;" parent="1" vertex="1">
          <mxGeometry x="613" y="243.45" width="54" height="62.55" as="geometry" />
        </mxCell>
        <mxCell id="lZYvfVT1V63JjuYHoyjp-27" value="" style="shape=singleArrow;whiteSpace=wrap;html=1;fillColor=#0050ef;strokeColor=#001DBC;fontColor=#ffffff;" parent="1" vertex="1">
          <mxGeometry x="200" y="256" width="80" height="40" as="geometry" />
        </mxCell>
        <mxCell id="lZYvfVT1V63JjuYHoyjp-28" value="" style="shape=singleArrow;whiteSpace=wrap;html=1;fillColor=#0050ef;strokeColor=#001DBC;fontColor=#ffffff;" parent="1" vertex="1">
          <mxGeometry x="400" y="266" width="30" height="21.27" as="geometry" />
        </mxCell>
        <mxCell id="lZYvfVT1V63JjuYHoyjp-29" value="" style="shape=singleArrow;whiteSpace=wrap;html=1;fillColor=#0050ef;strokeColor=#001DBC;fontColor=#ffffff;" parent="1" vertex="1">
          <mxGeometry x="550" y="264.73" width="30" height="21.27" as="geometry" />
        </mxCell>
        <mxCell id="lZYvfVT1V63JjuYHoyjp-30" value="" style="shape=singleArrow;whiteSpace=wrap;html=1;fillColor=#0050ef;strokeColor=#001DBC;fontColor=#ffffff;" parent="1" vertex="1">
          <mxGeometry x="700" y="254.73" width="60" height="40" as="geometry" />
        </mxCell>
        <mxCell id="lZYvfVT1V63JjuYHoyjp-31" value="&lt;font style=&quot;font-size: 10px;&quot;&gt;Row Data&lt;/font&gt;" style="text;html=1;align=center;verticalAlign=middle;whiteSpace=wrap;rounded=0;fontStyle=1" parent="1" vertex="1">
          <mxGeometry x="310.5" y="309" width="60" height="20" as="geometry" />
        </mxCell>
        <mxCell id="lZYvfVT1V63JjuYHoyjp-32" value="&lt;font style=&quot;font-size: 10px;&quot;&gt;Cleansed, Standardized Data&lt;/font&gt;" style="text;html=1;align=center;verticalAlign=middle;whiteSpace=wrap;rounded=0;fontStyle=1" parent="1" vertex="1">
          <mxGeometry x="459" y="316" width="60" height="20" as="geometry" />
        </mxCell>
        <mxCell id="lZYvfVT1V63JjuYHoyjp-33" value="&lt;font style=&quot;font-size: 10px;&quot;&gt;Business Ready Data&lt;/font&gt;" style="text;html=1;align=center;verticalAlign=middle;whiteSpace=wrap;rounded=0;fontStyle=1" parent="1" vertex="1">
          <mxGeometry x="610" y="316" width="60" height="20" as="geometry" />
        </mxCell>
        <mxCell id="lZYvfVT1V63JjuYHoyjp-34" value="" style="verticalLabelPosition=bottom;shadow=0;dashed=0;align=center;html=1;verticalAlign=top;strokeWidth=1;shape=mxgraph.mockup.markup.line;strokeColor=#999999;" parent="1" vertex="1">
          <mxGeometry x="280" y="349" width="120" height="20" as="geometry" />
        </mxCell>
        <mxCell id="lZYvfVT1V63JjuYHoyjp-35" value="&lt;font&gt;&lt;b&gt;Object Type:&lt;/b&gt; Tables&lt;/font&gt;&lt;div&gt;&lt;br&gt;&lt;div&gt;&lt;font&gt;&lt;b&gt;Load:&lt;/b&gt;&amp;nbsp;&lt;/font&gt;&lt;/div&gt;&lt;div&gt;&lt;ul&gt;&lt;li&gt;&lt;span&gt;Batch Processing&lt;/span&gt;&lt;/li&gt;&lt;li&gt;&lt;span&gt;Full Load&lt;/span&gt;&lt;/li&gt;&lt;li&gt;&lt;span&gt;Truncate &amp;amp; Insert&lt;/span&gt;&lt;/li&gt;&lt;/ul&gt;&lt;div&gt;&lt;span&gt;No &lt;b&gt;Transformations&lt;/b&gt;&lt;/span&gt;&lt;/div&gt;&lt;/div&gt;&lt;div&gt;&lt;span&gt;&lt;br&gt;&lt;/span&gt;&lt;/div&gt;&lt;div&gt;&lt;span&gt;&lt;b&gt;Data Model: &lt;/b&gt;None (as-is)&lt;/span&gt;&lt;/div&gt;&lt;/div&gt;" style="text;html=1;align=left;verticalAlign=middle;whiteSpace=wrap;rounded=0;fontSize=10;" parent="1" vertex="1">
          <mxGeometry x="281" y="417" width="119" height="30" as="geometry" />
        </mxCell>
        <mxCell id="lZYvfVT1V63JjuYHoyjp-36" value="" style="verticalLabelPosition=bottom;shadow=0;dashed=0;align=center;html=1;verticalAlign=top;strokeWidth=1;shape=mxgraph.mockup.markup.line;strokeColor=#999999;" parent="1" vertex="1">
          <mxGeometry x="430" y="349" width="120" height="20" as="geometry" />
        </mxCell>
        <mxCell id="lZYvfVT1V63JjuYHoyjp-37" value="&lt;font&gt;&lt;b&gt;Object Type:&lt;/b&gt; Tables&lt;/font&gt;&lt;div&gt;&lt;br&gt;&lt;div&gt;&lt;font&gt;&lt;b&gt;Load:&lt;/b&gt;&amp;nbsp;&lt;/font&gt;&lt;/div&gt;&lt;div&gt;&lt;ul&gt;&lt;li&gt;&lt;span&gt;Batch Processing&lt;/span&gt;&lt;/li&gt;&lt;li&gt;&lt;span&gt;Full Load&lt;/span&gt;&lt;/li&gt;&lt;li&gt;&lt;span&gt;Truncate &amp;amp; Insert&lt;/span&gt;&lt;/li&gt;&lt;/ul&gt;&lt;div&gt;&lt;span&gt;&lt;b&gt;Transformations:&lt;/b&gt;&lt;/span&gt;&lt;/div&gt;&lt;/div&gt;&lt;div&gt;&lt;ul&gt;&lt;li&gt;&lt;span&gt;Data Cleansing&lt;/span&gt;&lt;/li&gt;&lt;li&gt;&lt;span&gt;Data Standardization&lt;/span&gt;&lt;/li&gt;&lt;li&gt;&lt;span&gt;Data Normalization&lt;/span&gt;&lt;/li&gt;&lt;li&gt;&lt;span&gt;Derived Columns&lt;/span&gt;&lt;/li&gt;&lt;li&gt;&lt;span&gt;Data Enrichment&lt;/span&gt;&lt;/li&gt;&lt;/ul&gt;&lt;/div&gt;&lt;div&gt;&lt;span&gt;&lt;b&gt;&lt;br&gt;&lt;/b&gt;&lt;/span&gt;&lt;/div&gt;&lt;div&gt;&lt;span&gt;&lt;br&gt;&lt;/span&gt;&lt;/div&gt;&lt;div&gt;&lt;span&gt;&lt;b&gt;Data Model: &lt;/b&gt;None (as-is)&lt;/span&gt;&lt;/div&gt;&lt;/div&gt;" style="text;html=1;align=left;verticalAlign=middle;whiteSpace=wrap;rounded=0;fontSize=10;" parent="1" vertex="1">
          <mxGeometry x="431" y="475" width="119" height="30" as="geometry" />
        </mxCell>
        <mxCell id="lZYvfVT1V63JjuYHoyjp-38" value="" style="verticalLabelPosition=bottom;shadow=0;dashed=0;align=center;html=1;verticalAlign=top;strokeWidth=1;shape=mxgraph.mockup.markup.line;strokeColor=#999999;" parent="1" vertex="1">
          <mxGeometry x="579" y="349" width="121" height="20" as="geometry" />
        </mxCell>
        <mxCell id="lZYvfVT1V63JjuYHoyjp-39" value="&lt;font&gt;&lt;b&gt;Object Type:&lt;/b&gt; Views&lt;/font&gt;&lt;div&gt;&lt;font&gt;&lt;b&gt;&lt;br&gt;&lt;/b&gt;&lt;/font&gt;&lt;/div&gt;&lt;div&gt;&lt;font&gt;No&lt;b&gt; Load:&lt;/b&gt;&amp;nbsp;&lt;/font&gt;&lt;/div&gt;&lt;div&gt;&lt;ul&gt;&lt;li&gt;Data Integration&lt;/li&gt;&lt;li&gt;&lt;span&gt;Aggregation&lt;/span&gt;&lt;/li&gt;&lt;li&gt;&lt;span&gt;Business Login&lt;/span&gt;&lt;/li&gt;&lt;/ul&gt;&lt;div&gt;&lt;span&gt;No &lt;b&gt;Transformations&lt;/b&gt;&lt;/span&gt;&lt;/div&gt;&lt;/div&gt;&lt;div&gt;&lt;span&gt;&lt;br&gt;&lt;/span&gt;&lt;/div&gt;&lt;div&gt;&lt;span&gt;&lt;b&gt;Data Model:&lt;/b&gt;&lt;/span&gt;&lt;/div&gt;&lt;div&gt;&lt;ul&gt;&lt;li&gt;&lt;span&gt;Star Schema&lt;/span&gt;&lt;/li&gt;&lt;li&gt;Flat Table&lt;/li&gt;&lt;li&gt;Aggregated Table&lt;/li&gt;&lt;/ul&gt;&lt;/div&gt;" style="text;html=1;align=left;verticalAlign=middle;whiteSpace=wrap;rounded=0;fontSize=10;" parent="1" vertex="1">
          <mxGeometry x="580" y="443" width="120" height="30" as="geometry" />
        </mxCell>
        <mxCell id="lZYvfVT1V63JjuYHoyjp-40" value="" style="image;aspect=fixed;html=1;points=[];align=center;fontSize=12;image=img/lib/azure2/analytics/Power_BI_Embedded.svg;" parent="1" vertex="1">
          <mxGeometry x="781" y="158.5" width="39.75" height="53" as="geometry" />
        </mxCell>
        <mxCell id="lZYvfVT1V63JjuYHoyjp-41" value="" style="sketch=0;outlineConnect=0;fontColor=#232F3E;gradientColor=none;fillColor=#7AA116;strokeColor=none;dashed=0;verticalLabelPosition=bottom;verticalAlign=top;align=center;html=1;fontSize=12;fontStyle=0;aspect=fixed;pointerEvents=1;shape=mxgraph.aws4.backup_compliance_reporting;" parent="1" vertex="1">
          <mxGeometry x="825" y="160.5" width="40.61" height="49.5" as="geometry" />
        </mxCell>
        <mxCell id="lZYvfVT1V63JjuYHoyjp-42" value="&lt;b&gt;Ad-Hoc&lt;/b&gt;&lt;div&gt;&lt;b&gt;SQL Queries&lt;/b&gt;&lt;/div&gt;" style="sketch=0;html=1;aspect=fixed;strokeColor=none;shadow=0;fillColor=#3B8DF1;verticalAlign=top;labelPosition=center;verticalLabelPosition=bottom;shape=mxgraph.gcp2.search_api" parent="1" vertex="1">
          <mxGeometry x="793.5" y="300" width="55" height="55" as="geometry" />
        </mxCell>
        <mxCell id="lZYvfVT1V63JjuYHoyjp-44" value="&lt;font&gt;BI and Reporting&lt;/font&gt;" style="text;html=1;align=center;verticalAlign=middle;whiteSpace=wrap;rounded=0;fontStyle=1" parent="1" vertex="1">
          <mxGeometry x="780" y="219" width="90" height="20" as="geometry" />
        </mxCell>
        <mxCell id="lZYvfVT1V63JjuYHoyjp-47" value="" style="sketch=0;outlineConnect=0;fontColor=#ffffff;fillColor=#0050ef;strokeColor=#001DBC;dashed=0;verticalLabelPosition=bottom;verticalAlign=top;align=center;html=1;fontSize=12;fontStyle=0;aspect=fixed;pointerEvents=1;shape=mxgraph.aws4.rds_sql_server_instance;shadow=1;" parent="1" vertex="1">
          <mxGeometry x="242" y="88" width="38" height="38" as="geometry" />
        </mxCell>
        <mxCell id="bs6Z9vZzlrva4HIqYHeA-1" value="Cloud&#xa;Talent Solutions" style="sketch=0;html=1;verticalAlign=top;labelPosition=center;verticalLabelPosition=bottom;align=center;spacingTop=-6;fontSize=11;fontStyle=1;fontColor=#999999;shape=image;aspect=fixed;imageAspect=0;image=data:image/svg+xml,PHN2ZyB4bWxucz0iaHR0cDovL3d3dy53My5vcmcvMjAwMC9zdmciIHhtbG5zOnY9Imh0dHBzOi8vdmVjdGEuaW8vbmFubyIgd2lkdGg9IjE5LjkyMTQ0MjAzMTg2MDM1IiBoZWlnaHQ9IjE5Ljc3ODMyMDMxMjUiIHZpZXdCb3g9Ii0wLjAwMDQ0MTU1NzE3NDc4MTMzNzQgMC4yNSAxOS45MjE0NDIwMzE4NjAzNSAxOS43NzgzMjAzMTI1Ij4mI3hhOwk8c3R5bGUgdHlwZT0idGV4dC9jc3MiPiYjeGE7CS5zdDB7ZmlsbDojNDI4NWY0O30mI3hhOwkuc3Qxe2ZpbGw6I2FlY2JmYTt9JiN4YTsJLnN0MntmaWxsLXJ1bGU6ZXZlbm9kZH0mI3hhOwkuc3Qze2ZpbGw6IzY2OWRmNjt9JiN4YTsJPC9zdHlsZT4mI3hhOwk8cGF0aCBjbGFzcz0ic3QwIiBkPSJNNC40NjEgMTYuMjRhMyAzIDAgMSAxIDAtNiAzIDMgMCAxIDEgMCA2em0zLjYzLS40YTQuNDMgNC40MyAwIDAgMC01LjA0OS02LjcxNEE0LjQzIDQuNDMgMCAwIDAgLjAxMSAxMy4zMmE0LjkxIDQuOTEgMCAwIDAgMCAuNjcgMy40MyAzLjQzIDAgMCAwIC4wOS40NGwuMDYuMjFhNC41OSA0LjU5IDAgMCAwIC4zNC43OSA0LjI0IDQuMjQgMCAwIDAgLjc2IDFsLjE1LjE1LjMzLjI3YTQuMTYgNC4xNiAwIDAgMCAuNzMuNDQgNC40NCA0LjQ0IDAgMCAwIDQuNTQtLjI5bDIuOTMgMi45M2EuMzMuMzMgMCAwIDAgLjQ3IDBsLjY2LS42NWEuMzMuMzMgMCAwIDAgMC0uNDd6Ii8+JiN4YTsJPHBhdGggY2xhc3M9InN0MSIgZD0iTTkuODExIDE0LjU4YTUuNDEgNS40MSAwIDAgMCAuMi0xLjUxIDUuNTMgNS41MyAwIDAgMC01LjYxLTUuNDIgNS44MiA1LjgyIDAgMCAwLTEuOTIuMzVWMy44M2EuNjIuNjIgMCAwIDEgLjYyLS42MmgxNi4xOWEuNjMuNjMgMCAwIDEgLjYzLjYyVjE0YS42My42MyAwIDAgMS0uNjMuNjN6Ii8+JiN4YTsJPGcgY2xhc3M9InN0MiI+JiN4YTsJCTxwYXRoIGNsYXNzPSJzdDMiIGQ9Ik0xMy41OTEgMy4yMVYxLjczaC00LjQ0djEuNDhoLTEuNDlWLjg3YS42My42MyAwIDAgMSAuNjMtLjYyaDYuMTZhLjYyLjYyIDAgMCAxIC42Mi42MnYyLjM0eiIvPiYjeGE7CQk8cGF0aCBjbGFzcz0ic3QwIiBkPSJNMTUuMDcxIDMuMjFoLTEuNDhsMS40OC0uNDd6bS01LjkzIDBoLTEuNDlsMS40OS0uNTR6Ii8+JiN4YTsJPC9nPiYjeGE7PC9zdmc+;" vertex="1" parent="1">
          <mxGeometry x="670" y="78" width="42" height="42" as="geometry" />
        </mxCell>
        <mxCell id="bs6Z9vZzlrva4HIqYHeA-2" value="" style="points=[];aspect=fixed;html=1;align=center;shadow=0;dashed=0;fillColor=#FF6A00;strokeColor=none;shape=mxgraph.alibaba_cloud.ros_resource_orchestration_service;" vertex="1" parent="1">
          <mxGeometry x="795.95" y="447" width="50.099999999999994" height="43.5" as="geometry" />
        </mxCell>
        <mxCell id="bs6Z9vZzlrva4HIqYHeA-4" value="&lt;font&gt;Data Orchestration&lt;/font&gt;" style="text;html=1;align=center;verticalAlign=middle;whiteSpace=wrap;rounded=0;fontStyle=1;fontSize=13;" vertex="1" parent="1">
          <mxGeometry x="791" y="500" width="60" height="20" as="geometry" />
        </mxCell>
      </root>
    </mxGraphModel>
  </diagram>
</mxfile>
